<svg width="91" height="44" viewBox="0 0 91 44" fill="none" xmlns="http://www.w3.org/2000/svg">
<path d="M2.61017 41.3898H41.3898V36.7288H44V44H0V22.1864H2.61017V41.3898Z" fill="black"/>
<path d="M41.3898 2.61017H7.08475H2.61017V14.3559H0V0H7.08475H44V28.8983H41.3898V2.61017Z" fill="black"/>
<path d="M41.3898 31.5084H44V34.1186H41.3898V31.5084Z" fill="#FF0049"/>
<path d="M0 16.9661H2.61017V19.5762H0V16.9661Z" fill="#00D0F6"/>
<path d="M7.08472 19.6179V9.81596H11.4815C12.4854 9.81596 13.328 10.0221 14.0092 10.4345C14.6905 10.8468 15.2059 11.4205 15.5555 12.1555C15.9051 12.8905 16.0799 13.7466 16.0799 14.7236C16.0799 15.4497 15.9813 16.113 15.7841 16.7136C15.5869 17.3142 15.2911 17.8341 14.8967 18.2733C14.5112 18.7036 14.0317 19.0352 13.458 19.2683C12.8933 19.5013 12.2344 19.6179 11.4815 19.6179H7.08472ZM9.81419 17.3186H11.0109C11.3246 17.3186 11.6159 17.2873 11.8848 17.2245C12.1627 17.1528 12.4047 17.0273 12.6109 16.848C12.826 16.6598 12.9919 16.3909 13.1084 16.0413C13.2339 15.6917 13.2966 15.2346 13.2966 14.6698C13.2966 13.9617 13.1935 13.4239 12.9874 13.0564C12.7902 12.6889 12.5213 12.4423 12.1806 12.3169C11.84 12.1824 11.4501 12.1152 11.0109 12.1152H9.81419V17.3186Z" fill="black"/>
<path d="M18.763 19.6179V9.81596H26.1582V12.1286H20.9278L21.4925 11.5639V14.1455L20.9278 13.5807H25.4859V15.7455H20.9278L21.4925 15.1808V17.8699L20.9278 17.3052H26.1985V19.6179H18.763Z" fill="black"/>
<path d="M32.6798 19.7523C31.7745 19.7523 31.0081 19.6179 30.3806 19.3489C29.7532 19.08 29.2736 18.7036 28.9419 18.2195C28.6192 17.7265 28.4579 17.1573 28.4579 16.5119H31.2277C31.2277 16.745 31.2815 16.9511 31.389 17.1304C31.4966 17.3007 31.6624 17.4352 31.8865 17.5338C32.1196 17.6324 32.4244 17.6817 32.8008 17.6817C33.1953 17.6817 33.5045 17.6145 33.7286 17.48C33.9617 17.3455 34.0782 17.1528 34.0782 16.9018C34.0782 16.7226 34.0468 16.5791 33.9841 16.4716C33.9303 16.355 33.8317 16.2609 33.6883 16.1892C33.5448 16.1175 33.3432 16.0592 33.0832 16.0144C32.8233 15.9606 32.4916 15.9024 32.0882 15.8396C31.5235 15.7589 31.026 15.6379 30.5958 15.4766C30.1655 15.3152 29.8069 15.1136 29.5201 14.8715C29.2333 14.6295 29.0181 14.3427 28.8747 14.011C28.7313 13.6794 28.6596 13.2984 28.6596 12.8681C28.6596 12.2048 28.8209 11.6356 29.1436 11.1605C29.4753 10.6854 29.9414 10.3224 30.542 10.0714C31.1515 9.82044 31.8731 9.69495 32.7067 9.69495C33.4955 9.69495 34.1813 9.82044 34.7639 10.0714C35.3555 10.3134 35.8127 10.6586 36.1354 11.1067C36.467 11.546 36.6329 12.0614 36.6329 12.653H33.8899C33.881 12.411 33.8138 12.2227 33.6883 12.0883C33.5628 11.9538 33.4059 11.8597 33.2177 11.8059C33.0294 11.7521 32.8367 11.7252 32.6395 11.7252C32.4064 11.7252 32.2003 11.7566 32.021 11.8194C31.8507 11.8821 31.7162 11.9717 31.6176 12.0883C31.528 12.2048 31.4832 12.3437 31.4832 12.5051C31.4832 12.7382 31.5504 12.9129 31.6849 13.0295C31.8283 13.137 32.0524 13.2222 32.3571 13.2849C32.6709 13.3387 33.0787 13.406 33.5807 13.4866C33.9751 13.5404 34.365 13.6211 34.7505 13.7287C35.1449 13.8362 35.5034 13.9976 35.8261 14.2127C36.1578 14.4278 36.4222 14.7281 36.6194 15.1136C36.8166 15.499 36.9152 16.001 36.9152 16.6195C36.9152 17.229 36.7584 17.7713 36.4446 18.2464C36.1309 18.7215 35.6603 19.0935 35.0328 19.3624C34.4143 19.6223 33.63 19.7523 32.6798 19.7523Z" fill="black"/>
<path d="M7.08472 34.1632V24.3613H9.81419V34.1632H7.08472Z" fill="black"/>
<path d="M18.4842 34.2976C17.7044 34.2976 17.0097 34.1766 16.4002 33.9346C15.7906 33.6926 15.2752 33.3519 14.8539 32.9127C14.4416 32.4645 14.1234 31.9312 13.8993 31.3127C13.6841 30.6942 13.5766 30.0085 13.5766 29.2555C13.5766 28.4398 13.6931 27.7227 13.9262 27.1042C14.1682 26.4767 14.5088 25.9523 14.948 25.531C15.3962 25.1008 15.9296 24.7781 16.5481 24.5629C17.1666 24.3389 17.8523 24.2268 18.6053 24.2268C19.5285 24.2268 20.3218 24.3747 20.9851 24.6705C21.6574 24.9574 22.1863 25.3607 22.5717 25.8806C22.9572 26.4005 23.1813 27.0101 23.244 27.7092H20.4339C20.3801 27.4672 20.2725 27.261 20.1112 27.0907C19.9498 26.9115 19.7437 26.777 19.4927 26.6874C19.2417 26.5888 18.9459 26.5395 18.6053 26.5395C18.1571 26.5395 17.7627 26.6336 17.422 26.8218C17.0904 27.0011 16.8304 27.2924 16.6422 27.6958C16.4629 28.0902 16.3733 28.6101 16.3733 29.2555C16.3733 29.7395 16.4226 30.1608 16.5212 30.5194C16.6198 30.869 16.7632 31.1558 16.9514 31.3799C17.1397 31.604 17.3682 31.7698 17.6372 31.8774C17.9061 31.985 18.2064 32.0387 18.538 32.0387C18.9862 32.0387 19.3672 31.967 19.6809 31.8236C19.9946 31.6802 20.2322 31.4785 20.3935 31.2186C20.5638 30.9496 20.649 30.6404 20.649 30.2908V29.8874L21.3347 30.7076H18.3767V28.8118H23.3919V29.995C23.3919 30.6404 23.2754 31.2275 23.0423 31.7564C22.8093 32.2853 22.4776 32.7379 22.0473 33.1144C21.6171 33.4909 21.1017 33.7822 20.5011 33.9884C19.9005 34.1945 19.2282 34.2976 18.4842 34.2976Z" fill="black"/>
<path d="M27.1566 34.1632V24.3613H30.3701L33.5567 30.3715H33.6643L33.5702 27.3865V24.3613H36.1921V34.1632H33.1668L29.9802 28.3681H29.8726L29.9399 30.99V34.1632H27.1566Z" fill="black"/>
<path d="M52.4271 34.3051C52.0393 34.3051 51.7311 34.2505 51.5024 34.1411C51.2836 34.0317 51.1245 33.8676 51.0251 33.6489C50.9356 33.4202 50.8909 33.1418 50.8909 32.8136V27.474H49.3695V26.4746H50.8909V24.1329L52.099 23.9689V26.4746H53.9187V27.474H52.099V32.6048C52.099 32.8832 52.1487 33.0672 52.2482 33.1567C52.3476 33.2462 52.5315 33.2909 52.8 33.2909H53.9187V34.3051H52.4271Z" fill="black"/>
<path d="M59.9456 34.4394C59.1799 34.4394 58.5187 34.2753 57.9619 33.9472C57.405 33.6091 56.9725 33.1368 56.6642 32.5302C56.3659 31.9237 56.2168 31.2177 56.2168 30.4123C56.2168 29.5969 56.3659 28.8859 56.6642 28.2794C56.9625 27.6629 57.3851 27.1906 57.932 26.8624C58.4889 26.5244 59.1402 26.3553 59.8859 26.3553C60.7311 26.3553 61.4222 26.5442 61.9591 26.9221C62.506 27.29 62.8988 27.7971 63.1375 28.4434C63.386 29.0798 63.4706 29.8007 63.391 30.6062H57.41C57.4299 31.2028 57.5442 31.7149 57.753 32.1424C57.9619 32.5601 58.2502 32.8832 58.6181 33.1119C58.996 33.3307 59.4385 33.4401 59.9456 33.4401C60.5323 33.4401 61.0245 33.3058 61.4222 33.0373C61.8299 32.7589 62.0884 32.391 62.1978 31.9336H63.3612C63.2916 32.4308 63.0977 32.8683 62.7795 33.2462C62.4712 33.624 62.0685 33.9173 61.5714 34.1262C61.0841 34.335 60.5422 34.4394 59.9456 34.4394ZM57.4249 29.8902L57.3056 29.6665H62.3469L62.2127 29.9201C62.2326 29.3135 62.1381 28.8213 61.9293 28.4434C61.7304 28.0557 61.452 27.7772 61.0941 27.6082C60.7361 27.4292 60.3284 27.3397 59.871 27.3397C59.3937 27.3397 58.9711 27.4441 58.6032 27.6529C58.2452 27.8518 57.9668 28.1451 57.768 28.5329C57.5691 28.9108 57.4547 29.3632 57.4249 29.8902Z" fill="black"/>
<path d="M69.4509 34.4394C68.9736 34.4394 68.5361 34.3499 68.1384 34.1709C67.7506 33.982 67.4125 33.7185 67.1241 33.3804C66.8358 33.0324 66.612 32.6098 66.4529 32.1126C66.3038 31.6055 66.2292 31.0288 66.2292 30.3824C66.2292 29.5273 66.3635 28.7964 66.6319 28.1899C66.9103 27.5833 67.2882 27.1259 67.7655 26.8177C68.2527 26.4995 68.8145 26.3404 69.4509 26.3404C69.9083 26.3404 70.321 26.415 70.6889 26.5641C71.0667 26.7033 71.3849 26.9072 71.6435 27.1757C71.902 27.4342 72.0959 27.7424 72.2252 28.1004H72.2997L72.3445 26.4746H73.5079V34.3051H72.2997V32.6645H72.2252C72.0263 33.1915 71.6882 33.619 71.2109 33.9472C70.7336 34.2753 70.147 34.4394 69.4509 34.4394ZM69.8536 33.4251C70.3806 33.4251 70.8231 33.3009 71.1811 33.0523C71.5391 32.8037 71.8125 32.4855 72.0014 32.0977C72.1904 31.7099 72.2848 31.2972 72.2848 30.8597V29.9051C72.2848 29.4676 72.1904 29.055 72.0014 28.6672C71.8125 28.2694 71.5391 27.9512 71.1811 27.7126C70.8231 27.464 70.3806 27.3397 69.8536 27.3397C69.3763 27.3397 68.9587 27.459 68.6007 27.6977C68.2428 27.9264 67.9644 28.2645 67.7655 28.7119C67.5666 29.1594 67.4672 29.7162 67.4672 30.3824C67.4672 31.0387 67.5666 31.5955 67.7655 32.0529C67.9644 32.5004 68.2428 32.8434 68.6007 33.0821C68.9587 33.3108 69.3763 33.4251 69.8536 33.4251Z" fill="black"/>
<path d="M77.2596 34.3051V26.4746H78.4081L78.4529 28.1004H78.5423C78.771 27.5237 79.129 27.0911 79.6162 26.8028C80.1035 26.5045 80.6404 26.3553 81.2271 26.3553C81.8237 26.3553 82.3507 26.4995 82.8081 26.7879C83.2655 27.0762 83.5936 27.5585 83.7925 28.2346H83.9118C84.1405 27.6082 84.5084 27.1408 85.0156 26.8326C85.5326 26.5144 86.1094 26.3553 86.7457 26.3553C87.2727 26.3553 87.7401 26.4647 88.1478 26.6834C88.5654 26.9022 88.8935 27.2602 89.1322 27.7573C89.3708 28.2446 89.4901 28.8909 89.4901 29.6963V34.3051H88.2969V29.935C88.2969 29.3483 88.2223 28.866 88.0732 28.4882C87.934 28.1103 87.7202 27.8319 87.4318 27.6529C87.1534 27.464 86.7855 27.3695 86.3281 27.3695C85.8608 27.3695 85.4481 27.4889 85.0901 27.7275C84.7421 27.9662 84.4687 28.2893 84.2698 28.697C84.0809 29.0947 83.9864 29.5521 83.9864 30.0692V34.3051H82.7634V29.935C82.7634 29.3483 82.6938 28.866 82.5545 28.4882C82.4153 28.1103 82.2016 27.8319 81.9132 27.6529C81.6348 27.464 81.2718 27.3695 80.8244 27.3695C80.3471 27.3695 79.9295 27.4889 79.5715 27.7275C79.2235 27.9662 78.95 28.2893 78.7512 28.697C78.5523 29.0947 78.4529 29.5521 78.4529 30.0692V34.3051H77.2596Z" fill="black"/>
</svg>
