<svg width="311" height="75" viewBox="0 0 311 75" fill="none" xmlns="http://www.w3.org/2000/svg">
<g clip-path="url(#clip0_5_2)">
<path d="M0 75C20.6557 75 37.623 58.2787 37.623 37.377C37.623 16.4754 20.6557 0 0 0V75Z" fill="#0B0E29"/>
<path d="M93.9344 63.4426V72.0492H52.8689V2.95082H93.4426V11.5574H61.9672V32.7049H90.9836V41.3115H61.9672V63.1967H93.9344V63.4426Z" fill="#0B0E29"/>
<path d="M102.295 56.3115L110.164 51.8853C112.623 59.5082 118.525 64.4262 128.607 64.4262C138.443 64.4262 143.115 60 143.115 53.8525C143.115 46.7213 136.967 44.2623 126.885 41.3115C115.82 37.8689 105.246 34.4262 105.246 21.3934C105.246 8.85246 115.328 1.96722 126.885 1.96722C138.197 1.96722 146.311 8.36066 150.246 16.9672L142.623 21.1475C140.164 15.2459 135.246 10.5738 126.885 10.5738C119.508 10.5738 114.344 14.5082 114.344 20.9016C114.344 27.2951 119.262 29.7541 128.852 32.7049C140.902 36.6394 152.213 40.082 152.213 53.6066C152.213 65.6557 142.377 73.5246 128.361 73.5246C115.328 73.2787 105.984 66.6394 102.295 56.3115Z" fill="#0B0E29"/>
<path d="M175.328 2.95082V72.0492H166.23V2.95082H175.328Z" fill="#0B0E29"/>
<path d="M258.689 42.0492C258.689 59.5082 245.656 73.5246 224.754 73.5246C203.361 73.5246 188.361 57.541 188.361 37.623C188.361 17.7049 203.607 1.72131 224.508 1.72131C237.541 1.72131 248.607 8.60656 254.508 18.4426L246.639 23.1148C242.705 15.7377 234.344 10.5738 224.508 10.5738C208.525 10.5738 197.459 22.3771 197.459 37.623C197.459 52.623 208.525 64.4262 225 64.4262C239.262 64.4262 247.869 56.5574 249.59 46.2295H224.262V37.8689H258.689V42.0492Z" fill="#0B0E29"/>
<path d="M271.475 18.6885L310.574 75H271.475V18.6885Z" fill="#0B0E29"/>
<path d="M310.574 56.3115L271.475 0H310.574V56.3115Z" fill="#0B0E29"/>
</g>
<defs>
<clipPath id="clip0_5_2">
<rect width="310.574" height="75" fill="white"/>
</clipPath>
</defs>
</svg>
